# xmcd CD database file
#
# Track frame offsets:
#	187
#	22342
#	44249
#	59002
#	76897
#	95879
#	113309
#	130989
#	148827
#	164397
#
# Disc length: 2554 seconds
#
# Revision: 3
# Processed by: cddbd v1.5.2PL0 Copyright (c) Steve Scherf et al.
# Submitted via: CDex 1.51
#
DISCID=9509f80a
DTITLE=Nik Kershaw - The Riddle
DYEAR=1984
DGENRE=Rock
TTITLE0=Don Quixote
TTITLE1=Know How
TTITLE2=You Might
TTITLE3=Wild Horses
TTITLE4=Easy
TTITLE5=The Riddle
TTITLE6=City Of Angels
TTITLE7=Roses
TTITLE8=Wide Boy
TTITLE9=Save The Whale
EXTD=YEAR: 1984
EXTT0=
EXTT1=
EXTT2=
EXTT3=
EXTT4=
EXTT5=
EXTT6=
EXTT7=
EXTT8=
EXTT9=
PLAYORDER=
